<svg data-v-fde0c5aa="" xmlns="http://www.w3.org/2000/svg" viewBox="0 0 300 300" class="iconAboveSlogan"><!----><defs data-v-fde0c5aa=""><!----></defs><rect data-v-fde0c5aa="" fill="transparent" x="0" y="0" width="300px" height="300px" class="logo-background-square"></rect><defs data-v-fde0c5aa=""><!----></defs><g data-v-fde0c5aa="" id="0eaaf31d-fb35-42b3-a5db-92af39f0d631" fill="#000000" transform="matrix(3.3248079895170957,0,0,3.3248079895170957,18.6035805889141,152.52619931891357)"><path d="M2.24 12.17L7.17 12.17L7.17 11.94L6.13 11.94L6.13 2.72C8.39 2.72 8.78 6.15 8.78 6.87L8.99 6.87L8.99 2.49L0.42 2.49L0.42 6.87L0.63 6.87C0.63 6.15 1.02 2.72 3.28 2.72L3.28 11.94L2.24 11.94ZM13.19 6.59L13.19 5.46C12.25 5.66 11.35 5.73 10.39 5.73L9.55 5.73L9.55 5.95L10.54 5.95L10.54 11.94L9.67 11.94L9.67 12.17L14.18 12.17L14.18 11.94L13.13 11.94L13.13 9.16C13.13 6.94 13.68 5.71 14.85 5.71C15.37 5.71 15.68 5.99 15.81 6.16C15.86 6.24 15.89 6.30 15.89 6.37C15.89 6.45 15.83 6.50 15.76 6.50C15.67 6.50 15.62 6.38 15.54 6.29C15.46 6.19 15.25 6.01 14.92 6.01C14.38 6.01 14 6.44 14 7C14 7.63 14.49 8.05 15.09 8.05C15.85 8.05 16.28 7.46 16.28 6.79C16.28 6.06 15.68 5.46 14.84 5.46C14.08 5.46 13.54 5.95 13.26 6.59ZM20.80 10.05C20.80 10.75 20.55 11.73 19.94 11.73C19.52 11.73 19.15 11.31 19.15 10.30C19.15 9.10 19.92 8.71 20.80 8.75ZM21.07 10.84C21.14 11.65 21.70 12.43 22.69 12.43C23.98 12.43 24.49 11.52 24.64 10.26L24.39 10.23C24.30 11.00 24.07 11.63 23.70 11.63C23.51 11.63 23.45 11.38 23.45 11.06L23.45 8.68C23.45 6.48 22.75 5.46 19.73 5.46C17.99 5.46 16.94 6.13 16.94 7.21C16.94 7.84 17.42 8.39 18.19 8.39C18.72 8.39 19.25 7.95 19.25 7.32C19.25 6.82 18.91 6.31 18.35 6.31C17.77 6.31 17.58 6.82 17.58 6.82C17.54 6.90 17.53 7.03 17.40 7.03C17.35 7.03 17.28 6.99 17.28 6.90C17.28 6.33 18.21 5.74 19.29 5.74C20.78 5.74 20.80 7.01 20.80 8.04L20.80 8.50C19.52 8.50 16.51 8.62 16.51 10.58C16.51 11.98 17.70 12.43 18.86 12.43C20.31 12.43 20.76 11.70 20.99 10.84ZM28.35 12.43C30.25 12.43 31.42 10.02 31.42 7.95C31.42 6.24 30.62 5.46 29.72 5.46C28.99 5.46 28.46 5.92 28.46 6.65C28.46 7.28 28.92 7.76 29.53 7.76C30.10 7.76 30.53 7.38 30.53 6.82C30.53 6.40 30.31 6.13 29.97 6.02C29.88 5.99 29.79 5.96 29.79 5.87C29.79 5.78 29.86 5.74 29.93 5.74C29.99 5.74 30.03 5.75 30.09 5.77C30.73 5.95 31.15 6.79 31.15 7.85C31.15 9.37 30.45 11.28 29.48 11.28C28.49 11.28 27.82 9.51 27.82 6.08L27.82 5.46C26.88 5.66 25.91 5.73 24.95 5.73L24.11 5.73L24.11 5.95L25.10 5.95L25.10 6.72C25.10 9.73 25.94 12.43 28.35 12.43ZM36.41 12.10C35.21 12.10 34.93 11.06 34.93 9.51L35.85 9.51C37.48 9.51 38.93 9.06 38.93 7.59C38.93 5.99 37.34 5.46 35.73 5.46C33.50 5.46 32.09 6.76 32.09 8.95C32.09 11.26 33.54 12.43 35.99 12.43C37.66 12.43 38.70 11.49 38.96 10.00L38.71 9.95L38.68 10.08C38.43 11.31 37.52 12.10 36.41 12.10ZM34.92 8.25C34.92 6.08 35.21 5.71 35.73 5.71C36.11 5.71 36.39 6.09 36.39 7.57C36.39 8.60 36.15 9.25 35.27 9.25L34.92 9.25ZM40.36 11.94L39.49 11.94L39.49 12.17L43.90 12.17L43.90 11.94L43.01 11.94L43.01 2.23C42.07 2.42 41.17 2.49 40.21 2.49L39.37 2.49L39.37 2.72L40.36 2.72ZM53.66 6.79L53.82 6.79C55.13 6.79 56.87 6.19 56.87 4.61C56.87 2.98 55.51 2.49 52.78 2.49L47.96 2.49L47.96 2.72L49 2.72L49 11.94L47.96 11.94L47.96 12.17L52.72 12.17C55.17 12.17 57.26 11.55 57.26 9.34C57.26 7.57 55.36 6.90 53.66 6.87ZM54.32 9.45C54.32 10.81 53.96 11.94 52.26 11.94L51.84 11.94L51.84 7.03L52.18 7.03C53.26 7.03 54.32 7.39 54.32 9.45ZM53.91 4.69C53.91 5.81 53.33 6.79 52.15 6.79L51.84 6.79L51.84 2.72L52.08 2.72C53.49 2.72 53.91 3.81 53.91 4.69ZM62.45 12.10C61.25 12.10 60.97 11.06 60.97 9.51L61.89 9.51C63.52 9.51 64.97 9.06 64.97 7.59C64.97 5.99 63.38 5.46 61.77 5.46C59.54 5.46 58.13 6.76 58.13 8.95C58.13 11.26 59.58 12.43 62.03 12.43C63.70 12.43 64.74 11.49 65.00 10.00L64.75 9.95L64.72 10.08C64.47 11.31 63.56 12.10 62.45 12.10ZM60.96 8.25C60.96 6.08 61.25 5.71 61.77 5.71C62.15 5.71 62.43 6.09 62.43 7.57C62.43 8.60 62.19 9.25 61.31 9.25L60.96 9.25ZM69.93 10.05C69.93 10.75 69.68 11.73 69.06 11.73C68.64 11.73 68.28 11.31 68.28 10.30C68.28 9.10 69.05 8.71 69.93 8.75ZM70.20 10.84C70.27 11.65 70.83 12.43 71.82 12.43C73.11 12.43 73.61 11.52 73.77 10.26L73.51 10.23C73.43 11.00 73.19 11.63 72.83 11.63C72.63 11.63 72.58 11.38 72.58 11.06L72.58 8.68C72.58 6.48 71.88 5.46 68.85 5.46C67.12 5.46 66.07 6.13 66.07 7.21C66.07 7.84 66.54 8.39 67.31 8.39C67.84 8.39 68.38 7.95 68.38 7.32C68.38 6.82 68.04 6.31 67.48 6.31C66.89 6.31 66.71 6.82 66.71 6.82C66.67 6.90 66.65 7.03 66.53 7.03C66.47 7.03 66.40 6.99 66.40 6.90C66.40 6.33 67.34 5.74 68.42 5.74C69.90 5.74 69.93 7.01 69.93 8.04L69.93 8.50C68.64 8.50 65.63 8.62 65.63 10.58C65.63 11.98 66.82 12.43 67.98 12.43C69.44 12.43 69.89 11.70 70.11 10.84ZM76.45 12.43C77.88 12.43 78.36 11.52 78.51 10.26L78.26 10.23C78.18 11.00 77.94 11.63 77.57 11.63C77.38 11.63 77.32 11.38 77.32 11.06L77.32 5.95L78.62 5.95L78.62 5.73L77.32 5.73L77.32 3.32L77.14 3.32C76.72 5.17 74.75 5.73 74.05 5.73L73.95 5.73L73.95 5.95L74.68 5.95L74.68 10.39C74.68 11.83 75.43 12.43 76.45 12.43Z"></path></g><defs data-v-fde0c5aa=""><linearGradient data-v-fde0c5aa="" gradientTransform="rotate(25)" id="a18c0bf4-f80f-4035-bb3a-f1d7a730ee24" x1="0%" y1="0%" x2="100%" y2="0%"><stop data-v-fde0c5aa="" offset="0%" stop-color="#E98E0D" stop-opacity="1"></stop><stop data-v-fde0c5aa="" offset="100%" stop-color="#1536F1" stop-opacity="1"></stop></linearGradient></defs><g data-v-fde0c5aa="" id="28343043-d0de-4338-be2d-c6615e14f4e8" stroke="none" fill="url(#a18c0bf4-f80f-4035-bb3a-f1d7a730ee24)" transform="matrix(1.1249701818037878,0,0,1.1249701818037878,93.75198013176771,60.76267734306855)"><path d="M10.808 57.449c-.041.146-.081.29-.119.433 1.696.182 4.154.439 6.667.694a25.917 25.917 0 0 1-.124-.458c-2.411-.245-4.758-.491-6.424-.669zM10.479 58.776c1.754.188 4.438.471 7.16.746-.049-.15-.093-.303-.139-.453-2.613-.266-5.185-.535-6.927-.722l-.094.429zM17.11 57.628a22.344 22.344 0 0 1-.288-1.379l-.642-11.568-4.809-1.285v12.371c-.159.413-.299.818-.425 1.219 1.62.173 3.858.408 6.164.642zM25.163 59.346l-.165-.46a443.265 443.265 0 0 1-7.072-.67c.051.154.104.309.157.461 2.692.271 5.34.526 7.08.669zM25.504 60.292l-.163-.455c-1.69-.135-4.351-.391-7.081-.664.056.152.112.305.17.457 2.747.275 5.413.53 7.074.662zM17.365 56.249c.119.493.256.984.405 1.474 2.623.265 5.238.519 7.051.672l-.438-1.214-7.018-.932z"></path><path d="M25.681 60.782c-1.598-.123-4.271-.377-7.056-.656.183.453.373.9.572 1.342 8.191 1.82 20.119 3.965 29.976 3.723 11.051.092 22.773-1.223 35.733-4.86 6.843-1.921 11.555-6.176 12.203-11.48.591-4.828-1.76-9.512-7.186-14.32l-.229-.203 2.727-5.497c-.378-.579-.685-.989-.685-.989l-3.455 6.894c6.427 5.332 8.187 9.808 7.829 13.44-.559 5.678-7.187 9.674-12.58 11.042-12.128 3.077-21.157 4.065-30.844 4.325-16.144.435-26.857-2.345-26.857-2.345l-.148-.416z"></path><path d="M21.423 53.677c.863-.215 1.711-.394 2.553-.475a8.998 8.998 0 0 1 2.508.1c.81.15 1.635.422 2.422.791.396.185.783.392 1.165.616.384.221.762.458 1.132.711a26.273 26.273 0 0 1 4.113 3.562l.222-.163a18.384 18.384 0 0 0-1.659-2.266 19.179 19.179 0 0 0-3.083-2.937 14.876 14.876 0 0 0-1.208-.802c-.84-.495-1.738-.921-2.727-1.185a10.778 10.778 0 0 0-2.987-.337c-1 .018-1.975.161-2.909.352-.936.184-1.836.41-2.718.611-.419.094-.833.183-1.245.262l.125 2.274c1.501-.315 2.924-.764 4.296-1.114zM10.986 55.021v-2.375a5.574 5.574 0 0 1-.356-.085c-1.454-.415-2.836-1.457-4.054-2.682-1.226-1.233-2.325-2.656-3.362-4.138C2.174 44.257 1.203 42.7.257 41.11L0 41.211c.438 1.827 1.116 3.579 1.931 5.281.829 1.695 1.824 3.333 3.095 4.818.636.74 1.347 1.44 2.163 2.053.815.609 1.745 1.137 2.797 1.44.266.077.523.139.811.188l.189.03zM10.212 60.556c2.805.303 6.589.645 8.084.777a28.221 28.221 0 0 1-.488-1.316 1254.4 1254.4 0 0 1-7.418-.771c-.08.446-.136.882-.178 1.31zM10.153 61.369c-.238 5.159 2.13 8.759 3.44 10.341.934-.482 1.523-1.18 3.228-1.18 2.601 0 2.601 1.629 5.201 1.629 1.1 0 1.734-.293 2.297-.629-1.497-1.901-3.924-5.305-5.67-9.348a514.345 514.345 0 0 1-8.496-.813z"></path><path d="M92.86 29.544l-2.168 4.579c5.403 4.865 7.834 9.852 7.227 14.825-.691 5.648-5.635 10.132-12.805 12.169-12.896 3.665-24.821 4.978-35.935 4.888a62.35 62.35 0 0 1-1.565.019c-9.376 0-20.218-1.921-27.982-3.623 1.76 3.638 3.955 6.774 5.418 8.687.533-.305 1.152-.557 2.174-.557 2.6 0 2.6 1.629 5.201 1.629 2.6 0 2.6-1.629 5.199-1.629 2.602 0 2.602 1.629 5.201 1.629 2.602 0 2.602-1.629 5.201-1.629 2.601 0 2.601 1.629 5.201 1.629s2.601-1.629 5.201-1.629 2.601 1.629 5.201 1.629c2.602 0 2.602-1.629 5.202-1.629s2.601 1.629 5.202 1.629 2.601-1.629 5.201-1.629c2.602 0 2.602 1.629 5.203 1.629s2.602-1.629 5.203-1.629c1.159 0 1.781.098 2.324.299 15.39-14.873 4.605-35.312.896-41.286z"></path></g><defs data-v-fde0c5aa=""><!----></defs><g data-v-fde0c5aa="" id="7cc8e348-6ae5-49ed-b358-86d46d3c205a" fill="#000000" transform="matrix(0.3982680485778118,0,0,0.3982680485778118,52.16545482590101,201.59140278109925)"><path d="M0.84 6.97L0.84 5.88L7.73 5.88L7.73 6.97L4.87 6.97L4.87 15.68L3.70 15.68L3.70 6.97L0.84 6.97ZM16.59 15.68L16.59 5.88L17.77 5.88L17.77 10.22L21.94 10.22L21.94 5.88L23.11 5.88L23.11 15.68L21.94 15.68L21.94 11.31L17.77 11.31L17.77 15.68L16.59 15.68ZM32.45 15.68L32.45 5.88L38.39 5.88L38.39 6.97L33.63 6.97L33.63 10.22L38.30 10.22L38.30 11.31L33.63 11.31L33.63 14.59L38.47 14.59L38.47 15.68L32.45 15.68ZM63.49 15.68L63.49 5.88L64.67 5.88L64.67 14.59L69.79 14.59L69.79 15.68L63.49 15.68ZM79.16 15.68L79.16 5.88L85.09 5.88L85.09 6.97L80.33 6.97L80.33 10.22L85.01 10.22L85.01 11.31L80.33 11.31L80.33 14.59L85.18 14.59L85.18 15.68L79.16 15.68ZM96.75 12.07L96.75 10.98L101.12 10.98L101.12 15.68L100.03 15.68L100.03 14.50L99.86 14.50L99.86 14.50Q99.62 15.12 99.02 15.50L99.02 15.50L99.02 15.50Q98.42 15.88 97.62 15.88L97.62 15.88L97.62 15.88Q96.04 15.88 95.14 14.85L95.14 14.85L95.14 14.85Q94.23 13.83 94.23 11.87L94.23 11.87L94.23 9.69L94.23 9.69Q94.23 7.78 95.14 6.73L95.14 6.73L95.14 6.73Q96.05 5.68 97.68 5.68L97.68 5.68L97.68 5.68Q98.52 5.68 99.16 5.96L99.16 5.96L99.16 5.96Q99.81 6.23 100.24 6.71L100.24 6.71L100.24 6.71Q100.67 7.20 100.90 7.85L100.90 7.85L100.90 7.85Q101.12 8.50 101.12 9.24L101.12 9.24L101.12 9.41L99.95 9.41L99.95 9.24L99.95 9.24Q99.95 8.76 99.81 8.32L99.81 8.32L99.81 8.32Q99.68 7.87 99.41 7.53L99.41 7.53L99.41 7.53Q99.13 7.18 98.71 6.98L98.71 6.98L98.71 6.98Q98.28 6.78 97.68 6.78L97.68 6.78L97.68 6.78Q96.54 6.78 95.98 7.60L95.98 7.60L95.98 7.60Q95.41 8.43 95.41 9.77L95.41 9.77L95.41 11.79L95.41 11.79Q95.41 13.23 95.98 14.01L95.98 14.01L95.98 14.01Q96.54 14.78 97.71 14.78L97.71 14.78L97.71 14.78Q98.76 14.78 99.35 14.11L99.35 14.11L99.35 14.11Q99.95 13.44 99.95 12.24L99.95 12.24L99.95 12.07L96.75 12.07ZM110.29 15.68L110.29 5.88L116.23 5.88L116.23 6.97L111.47 6.97L111.47 10.22L116.14 10.22L116.14 11.31L111.47 11.31L111.47 14.59L116.31 14.59L116.31 15.68L110.29 15.68ZM127.92 5.88L130.75 15.18L130.91 15.18L130.91 5.88L132.09 5.88L132.09 15.68L129.74 15.68L126.91 6.38L126.74 6.38L126.74 15.68L125.57 15.68L125.57 5.88L127.92 5.88ZM141.13 6.97L141.13 5.88L144.35 5.88L144.35 5.88Q146.17 5.88 147.01 6.75L147.01 6.75L147.01 6.75Q147.85 7.62 147.85 9.52L147.85 9.52L147.85 12.04L147.85 12.04Q147.85 13.94 147.01 14.81L147.01 14.81L147.01 14.81Q146.17 15.68 144.35 15.68L144.35 15.68L141.13 15.68L141.13 14.57L141.97 14.57L141.97 6.97L141.13 6.97ZM143.15 14.59L144.19 14.59L144.19 14.59Q144.83 14.59 145.30 14.46L145.30 14.46L145.30 14.46Q145.77 14.34 146.08 14.04L146.08 14.04L146.08 14.04Q146.38 13.73 146.53 13.23L146.53 13.23L146.53 13.23Q146.68 12.73 146.68 11.96L146.68 11.96L146.68 9.60L146.68 9.60Q146.68 8.83 146.53 8.33L146.53 8.33L146.53 8.33Q146.38 7.83 146.08 7.53L146.08 7.53L146.08 7.53Q145.77 7.22 145.30 7.10L145.30 7.10L145.30 7.10Q144.83 6.97 144.19 6.97L144.19 6.97L143.15 6.97L143.15 14.59ZM162.27 9.21L162.27 8.71L162.27 8.71Q162.27 8.23 162.09 7.87L162.09 7.87L162.09 7.87Q161.90 7.50 161.57 7.27L161.57 7.27L161.57 7.27Q161.25 7.03 160.83 6.90L160.83 6.90L160.83 6.90Q160.41 6.78 159.95 6.78L159.95 6.78L159.95 6.78Q159.54 6.78 159.18 6.88L159.18 6.88L159.18 6.88Q158.82 6.99 158.53 7.18L158.53 7.18L158.53 7.18Q158.24 7.38 158.07 7.66L158.07 7.66L158.07 7.66Q157.91 7.95 157.91 8.33L157.91 8.33L157.91 8.41L157.91 8.41Q157.91 8.82 158.07 9.11L158.07 9.11L158.07 9.11Q158.24 9.39 158.57 9.60L158.57 9.60L158.57 9.60Q158.90 9.80 159.39 9.93L159.39 9.93L159.39 9.93Q159.88 10.07 160.54 10.16L160.54 10.16L160.54 10.16Q162.08 10.40 162.81 11.07L162.81 11.07L162.81 11.07Q163.53 11.73 163.53 12.85L163.53 12.85L163.53 13.02L163.53 13.02Q163.53 13.65 163.32 14.17L163.32 14.17L163.32 14.17Q163.10 14.70 162.67 15.08L162.67 15.08L162.67 15.08Q162.25 15.46 161.62 15.67L161.62 15.67L161.62 15.67Q160.99 15.88 160.16 15.88L160.16 15.88L160.16 15.88Q159.22 15.88 158.50 15.60L158.50 15.60L158.50 15.60Q157.78 15.33 157.30 14.85L157.30 14.85L157.30 14.85Q156.81 14.36 156.56 13.71L156.56 13.71L156.56 13.71Q156.31 13.06 156.31 12.29L156.31 12.29L156.31 11.87L157.49 11.87L157.49 12.21L157.49 12.21Q157.49 13.50 158.19 14.14L158.19 14.14L158.19 14.14Q158.90 14.78 160.16 14.78L160.16 14.78L160.16 14.78Q161.25 14.78 161.81 14.30L161.81 14.30L161.81 14.30Q162.36 13.82 162.36 13.02L162.36 13.02L162.36 12.94L162.36 12.94Q162.36 12.17 161.79 11.76L161.79 11.76L161.79 11.76Q161.22 11.35 159.95 11.17L159.95 11.17L159.95 11.17Q159.21 11.07 158.61 10.87L158.61 10.87L158.61 10.87Q158.02 10.67 157.60 10.34L157.60 10.34L157.60 10.34Q157.18 10.01 156.95 9.55L156.95 9.55L156.95 9.55Q156.73 9.09 156.73 8.46L156.73 8.46L156.73 8.29L156.73 8.29Q156.73 7.71 156.97 7.24L156.97 7.24L156.97 7.24Q157.21 6.76 157.63 6.41L157.63 6.41L157.63 6.41Q158.06 6.06 158.66 5.87L158.66 5.87L158.66 5.87Q159.25 5.68 159.96 5.68L159.96 5.68L159.96 5.68Q160.79 5.68 161.44 5.92L161.44 5.92L161.44 5.92Q162.09 6.16 162.54 6.56L162.54 6.56L162.54 6.56Q162.99 6.96 163.22 7.50L163.22 7.50L163.22 7.50Q163.45 8.04 163.45 8.62L163.45 8.62L163.45 9.21L162.27 9.21ZM187.66 11.87L187.66 9.69L187.66 9.69Q187.66 7.78 188.57 6.73L188.57 6.73L188.57 6.73Q189.48 5.68 191.10 5.68L191.10 5.68L191.10 5.68Q192.72 5.68 193.63 6.73L193.63 6.73L193.63 6.73Q194.54 7.78 194.54 9.69L194.54 9.69L194.54 11.87L194.54 11.87Q194.54 13.83 193.63 14.85L193.63 14.85L193.63 14.85Q192.72 15.88 191.10 15.88L191.10 15.88L191.10 15.88Q189.48 15.88 188.57 14.85L188.57 14.85L188.57 14.85Q187.66 13.83 187.66 11.87L187.66 11.87ZM191.10 14.78L191.10 14.78L191.10 14.78Q192.23 14.78 192.80 14.01L192.80 14.01L192.80 14.01Q193.37 13.23 193.37 11.79L193.37 11.79L193.37 9.77L193.37 9.77Q193.37 8.43 192.80 7.60L192.80 7.60L192.80 7.60Q192.23 6.78 191.10 6.78L191.10 6.78L191.10 6.78Q189.97 6.78 189.40 7.60L189.40 7.60L189.40 7.60Q188.83 8.43 188.83 9.77L188.83 9.77L188.83 11.79L188.83 11.79Q188.83 13.23 189.40 14.01L189.40 14.01L189.40 14.01Q189.97 14.78 191.10 14.78ZM203.71 15.68L203.71 5.88L209.73 5.88L209.73 6.97L204.89 6.97L204.89 10.22L209.65 10.22L209.65 11.31L204.89 11.31L204.89 15.68L203.71 15.68ZM249.89 15.68L249.89 14.59L250.73 14.59L250.73 6.97L249.89 6.97L249.89 5.88L253.85 5.88L253.85 5.88Q254.55 5.88 255.09 6.08L255.09 6.08L255.09 6.08Q255.63 6.27 256.00 6.61L256.00 6.61L256.00 6.61Q256.37 6.94 256.56 7.41L256.56 7.41L256.56 7.41Q256.75 7.88 256.75 8.43L256.75 8.43L256.75 8.60L256.75 8.60Q256.75 9.00 256.62 9.34L256.62 9.34L256.62 9.34Q256.49 9.67 256.27 9.94L256.27 9.94L256.27 9.94Q256.05 10.21 255.75 10.39L255.75 10.39L255.75 10.39Q255.44 10.58 255.09 10.68L255.09 10.68L255.09 10.85L255.09 10.85Q255.79 11.05 256.27 11.60L256.27 11.60L256.27 11.60Q256.75 12.15 256.75 12.95L256.75 12.95L256.75 13.12L256.75 13.12Q256.75 13.66 256.56 14.13L256.56 14.13L256.56 14.13Q256.37 14.60 256.00 14.95L256.00 14.95L256.00 14.95Q255.63 15.29 255.09 15.48L255.09 15.48L255.09 15.48Q254.55 15.68 253.85 15.68L253.85 15.68L249.89 15.68ZM251.90 11.31L251.90 14.59L253.76 14.59L253.76 14.59Q254.59 14.59 255.11 14.17L255.11 14.17L255.11 14.17Q255.63 13.76 255.63 13.03L255.63 13.03L255.63 12.95L255.63 12.95Q255.63 12.19 255.14 11.75L255.14 11.75L255.14 11.75Q254.65 11.31 253.81 11.31L253.81 11.31L251.90 11.31ZM251.90 6.97L251.90 10.22L253.81 10.22L253.81 10.22Q254.65 10.22 255.14 9.79L255.14 9.79L255.14 9.79Q255.63 9.35 255.63 8.60L255.63 8.60L255.63 8.51L255.63 8.51Q255.63 7.80 255.11 7.38L255.11 7.38L255.11 7.38Q254.59 6.97 253.76 6.97L253.76 6.97L251.90 6.97ZM271.75 15.68L271.04 13.24L266.84 13.24L266.13 15.68L264.87 15.68L267.83 5.88L270.05 5.88L273.01 15.68L271.75 15.68ZM269.02 6.38L268.86 6.38L267.16 12.15L270.72 12.15L269.02 6.38ZM283.60 5.88L286.43 15.18L286.59 15.18L286.59 5.88L287.77 5.88L287.77 15.68L285.42 15.68L282.59 6.38L282.42 6.38L282.42 15.68L281.25 15.68L281.25 5.88L283.60 5.88ZM299.14 12.07L299.14 10.98L303.51 10.98L303.51 15.68L302.41 15.68L302.41 14.50L302.25 14.50L302.25 14.50Q302.01 15.12 301.41 15.50L301.41 15.50L301.41 15.50Q300.80 15.88 300.01 15.88L300.01 15.88L300.01 15.88Q298.42 15.88 297.52 14.85L297.52 14.85L297.52 14.85Q296.62 13.83 296.62 11.87L296.62 11.87L296.62 9.69L296.62 9.69Q296.62 7.78 297.53 6.73L297.53 6.73L297.53 6.73Q298.44 5.68 300.06 5.68L300.06 5.68L300.06 5.68Q300.90 5.68 301.55 5.96L301.55 5.96L301.55 5.96Q302.19 6.23 302.62 6.71L302.62 6.71L302.62 6.71Q303.06 7.20 303.28 7.85L303.28 7.85L303.28 7.85Q303.51 8.50 303.51 9.24L303.51 9.24L303.51 9.41L302.33 9.41L302.33 9.24L302.33 9.24Q302.33 8.76 302.20 8.32L302.20 8.32L302.20 8.32Q302.06 7.87 301.79 7.53L301.79 7.53L301.79 7.53Q301.52 7.18 301.09 6.98L301.09 6.98L301.09 6.98Q300.66 6.78 300.06 6.78L300.06 6.78L300.06 6.78Q298.93 6.78 298.36 7.60L298.36 7.60L298.36 7.60Q297.79 8.43 297.79 9.77L297.79 9.77L297.79 11.79L297.79 11.79Q297.79 13.23 298.36 14.01L298.36 14.01L298.36 14.01Q298.93 14.78 300.09 14.78L300.09 14.78L300.09 14.78Q301.14 14.78 301.74 14.11L301.74 14.11L301.74 14.11Q302.33 13.44 302.33 12.24L302.33 12.24L302.33 12.07L299.14 12.07ZM312.58 15.68L312.58 5.88L313.75 5.88L313.75 14.59L318.88 14.59L318.88 15.68L312.58 15.68ZM334.03 15.68L333.31 13.24L329.11 13.24L328.40 15.68L327.14 15.68L330.11 5.88L332.32 5.88L335.29 15.68L334.03 15.68ZM331.30 6.38L331.13 6.38L329.43 12.15L332.99 12.15L331.30 6.38ZM343.52 6.97L343.52 5.88L346.74 5.88L346.74 5.88Q348.56 5.88 349.40 6.75L349.40 6.75L349.40 6.75Q350.24 7.62 350.24 9.52L350.24 9.52L350.24 12.04L350.24 12.04Q350.24 13.94 349.40 14.81L349.40 14.81L349.40 14.81Q348.56 15.68 346.74 15.68L346.74 15.68L343.52 15.68L343.52 14.57L344.36 14.57L344.36 6.97L343.52 6.97ZM345.53 14.59L346.57 14.59L346.57 14.59Q347.21 14.59 347.68 14.46L347.68 14.46L347.68 14.46Q348.15 14.34 348.46 14.04L348.46 14.04L348.46 14.04Q348.77 13.73 348.91 13.23L348.91 13.23L348.91 13.23Q349.06 12.73 349.06 11.96L349.06 11.96L349.06 9.60L349.06 9.60Q349.06 8.83 348.91 8.33L348.91 8.33L348.91 8.33Q348.77 7.83 348.46 7.53L348.46 7.53L348.46 7.53Q348.15 7.22 347.68 7.10L347.68 7.10L347.68 7.10Q347.21 6.97 346.57 6.97L346.57 6.97L345.53 6.97L345.53 14.59ZM359.38 15.68L359.38 5.88L365.32 5.88L365.32 6.97L360.56 6.97L360.56 10.22L365.23 10.22L365.23 11.31L360.56 11.31L360.56 14.59L365.40 14.59L365.40 15.68L359.38 15.68ZM380.23 9.21L380.23 8.71L380.23 8.71Q380.23 8.23 380.04 7.87L380.04 7.87L380.04 7.87Q379.85 7.50 379.53 7.27L379.53 7.27L379.53 7.27Q379.20 7.03 378.78 6.90L378.78 6.90L378.78 6.90Q378.36 6.78 377.90 6.78L377.90 6.78L377.90 6.78Q377.50 6.78 377.13 6.88L377.13 6.88L377.13 6.88Q376.77 6.99 376.48 7.18L376.48 7.18L376.48 7.18Q376.19 7.38 376.03 7.66L376.03 7.66L376.03 7.66Q375.86 7.95 375.86 8.33L375.86 8.33L375.86 8.41L375.86 8.41Q375.86 8.82 376.03 9.11L376.03 9.11L376.03 9.11Q376.19 9.39 376.52 9.60L376.52 9.60L376.52 9.60Q376.85 9.80 377.34 9.93L377.34 9.93L377.34 9.93Q377.83 10.07 378.49 10.16L378.49 10.16L378.49 10.16Q380.03 10.40 380.76 11.07L380.76 11.07L380.76 11.07Q381.49 11.73 381.49 12.85L381.49 12.85L381.49 13.02L381.49 13.02Q381.49 13.65 381.27 14.17L381.27 14.17L381.27 14.17Q381.05 14.70 380.62 15.08L380.62 15.08L380.62 15.08Q380.20 15.46 379.57 15.67L379.57 15.67L379.57 15.67Q378.94 15.88 378.11 15.88L378.11 15.88L378.11 15.88Q377.17 15.88 376.45 15.60L376.45 15.60L376.45 15.60Q375.73 15.33 375.25 14.85L375.25 14.85L375.25 14.85Q374.77 14.36 374.51 13.71L374.51 13.71L374.51 13.71Q374.26 13.06 374.26 12.29L374.26 12.29L374.26 11.87L375.44 11.87L375.44 12.21L375.44 12.21Q375.44 13.50 376.14 14.14L376.14 14.14L376.14 14.14Q376.85 14.78 378.11 14.78L378.11 14.78L378.11 14.78Q379.20 14.78 379.76 14.30L379.76 14.30L379.76 14.30Q380.31 13.82 380.31 13.02L380.31 13.02L380.31 12.94L380.31 12.94Q380.31 12.17 379.74 11.76L379.74 11.76L379.74 11.76Q379.18 11.35 377.90 11.17L377.90 11.17L377.90 11.17Q377.16 11.07 376.56 10.87L376.56 10.87L376.56 10.87Q375.97 10.67 375.55 10.34L375.55 10.34L375.55 10.34Q375.13 10.01 374.91 9.55L374.91 9.55L374.91 9.55Q374.68 9.09 374.68 8.46L374.68 8.46L374.68 8.29L374.68 8.29Q374.68 7.71 374.92 7.24L374.92 7.24L374.92 7.24Q375.16 6.76 375.58 6.41L375.58 6.41L375.58 6.41Q376.01 6.06 376.61 5.87L376.61 5.87L376.61 5.87Q377.20 5.68 377.92 5.68L377.92 5.68L377.92 5.68Q378.74 5.68 379.39 5.92L379.39 5.92L379.39 5.92Q380.04 6.16 380.49 6.56L380.49 6.56L380.49 6.56Q380.94 6.96 381.17 7.50L381.17 7.50L381.17 7.50Q381.40 8.04 381.40 8.62L381.40 8.62L381.40 9.21L380.23 9.21ZM390.22 15.68L390.22 5.88L391.40 5.88L391.40 10.22L395.57 10.22L395.57 5.88L396.75 5.88L396.75 15.68L395.57 15.68L395.57 11.31L391.40 11.31L391.40 15.68L390.22 15.68ZM421.18 6.97L421.18 5.88L428.06 5.88L428.06 6.97L425.21 6.97L425.21 15.68L424.03 15.68L424.03 6.97L421.18 6.97ZM436.74 11.87L436.74 9.69L436.74 9.69Q436.74 7.78 437.65 6.73L437.65 6.73L437.65 6.73Q438.56 5.68 440.19 5.68L440.19 5.68L440.19 5.68Q441.81 5.68 442.72 6.73L442.72 6.73L442.72 6.73Q443.63 7.78 443.63 9.69L443.63 9.69L443.63 11.87L443.63 11.87Q443.63 13.83 442.72 14.85L442.72 14.85L442.72 14.85Q441.81 15.88 440.19 15.88L440.19 15.88L440.19 15.88Q438.56 15.88 437.65 14.85L437.65 14.85L437.65 14.85Q436.74 13.83 436.74 11.87L436.74 11.87ZM440.19 14.78L440.19 14.78L440.19 14.78Q441.32 14.78 441.89 14.01L441.89 14.01L441.89 14.01Q442.46 13.23 442.46 11.79L442.46 11.79L442.46 9.77L442.46 9.77Q442.46 8.43 441.89 7.60L441.89 7.60L441.89 7.60Q441.32 6.78 440.19 6.78L440.19 6.78L440.19 6.78Q439.05 6.78 438.49 7.60L438.49 7.60L438.49 7.60Q437.92 8.43 437.92 9.77L437.92 9.77L437.92 11.79L437.92 11.79Q437.92 13.23 438.49 14.01L438.49 14.01L438.49 14.01Q439.05 14.78 440.19 14.78ZM452.40 5.88L453.57 5.88L453.57 12.38L453.57 12.38Q453.57 13.57 454.12 14.17L454.12 14.17L454.12 14.17Q454.68 14.78 455.76 14.78L455.76 14.78L455.76 14.78Q456.83 14.78 457.39 14.17L457.39 14.17L457.39 14.17Q457.94 13.57 457.94 12.38L457.94 12.38L457.94 5.88L459.12 5.88L459.12 12.38L459.12 12.38Q459.12 14.08 458.22 14.98L458.22 14.98L458.22 14.98Q457.32 15.88 455.76 15.88L455.76 15.88L455.76 15.88Q454.19 15.88 453.29 14.98L453.29 14.98L453.29 14.98Q452.40 14.08 452.40 12.38L452.40 12.38L452.40 5.88ZM474.39 12.15L474.39 15.68L473.21 15.68L473.21 12.40L473.21 12.40Q473.21 12.04 473.05 11.84L473.05 11.84L473.05 11.84Q472.88 11.65 472.46 11.65L472.46 11.65L469.41 11.65L469.41 15.68L468.23 15.68L468.23 5.88L471.73 5.88L471.73 5.88Q472.49 5.88 473.05 6.10L473.05 6.10L473.05 6.10Q473.61 6.31 473.98 6.68L473.98 6.68L473.98 6.68Q474.35 7.04 474.54 7.53L474.54 7.53L474.54 7.53Q474.73 8.01 474.73 8.54L474.73 8.54L474.73 8.96L474.73 8.96Q474.73 9.51 474.42 10.05L474.42 10.05L474.42 10.05Q474.12 10.60 473.49 10.89L473.49 10.89L473.49 11.06L473.49 11.06Q473.91 11.13 474.15 11.40L474.15 11.40L474.15 11.40Q474.39 11.66 474.39 12.15L474.39 12.15ZM469.41 6.97L469.41 10.56L471.59 10.56L471.59 10.56Q472.58 10.56 473.07 10.13L473.07 10.13L473.07 10.13Q473.55 9.70 473.55 8.88L473.55 8.88L473.55 8.62L473.55 8.62Q473.55 7.88 473.07 7.43L473.07 7.43L473.07 7.43Q472.58 6.97 471.59 6.97L471.59 6.97L469.41 6.97ZM489.20 9.21L489.20 8.71L489.20 8.71Q489.20 8.23 489.01 7.87L489.01 7.87L489.01 7.87Q488.82 7.50 488.50 7.27L488.50 7.27L488.50 7.27Q488.18 7.03 487.76 6.90L487.76 6.90L487.76 6.90Q487.34 6.78 486.88 6.78L486.88 6.78L486.88 6.78Q486.47 6.78 486.11 6.88L486.11 6.88L486.11 6.88Q485.74 6.99 485.46 7.18L485.46 7.18L485.46 7.18Q485.17 7.38 485.00 7.66L485.00 7.66L485.00 7.66Q484.83 7.95 484.83 8.33L484.83 8.33L484.83 8.41L484.83 8.41Q484.83 8.82 485.00 9.11L485.00 9.11L485.00 9.11Q485.17 9.39 485.50 9.60L485.50 9.60L485.50 9.60Q485.83 9.80 486.32 9.93L486.32 9.93L486.32 9.93Q486.81 10.07 487.47 10.16L487.47 10.16L487.47 10.16Q489.01 10.40 489.73 11.07L489.73 11.07L489.73 11.07Q490.46 11.73 490.46 12.85L490.46 12.85L490.46 13.02L490.46 13.02Q490.46 13.65 490.24 14.17L490.24 14.17L490.24 14.17Q490.03 14.70 489.60 15.08L489.60 15.08L489.60 15.08Q489.17 15.46 488.54 15.67L488.54 15.67L488.54 15.67Q487.91 15.88 487.09 15.88L487.09 15.88L487.09 15.88Q486.15 15.88 485.43 15.60L485.43 15.60L485.43 15.60Q484.71 15.33 484.22 14.85L484.22 14.85L484.22 14.85Q483.74 14.36 483.49 13.71L483.49 13.71L483.49 13.71Q483.24 13.06 483.24 12.29L483.24 12.29L483.24 11.87L484.41 11.87L484.41 12.21L484.41 12.21Q484.41 13.50 485.12 14.14L485.12 14.14L485.12 14.14Q485.83 14.78 487.09 14.78L487.09 14.78L487.09 14.78Q488.18 14.78 488.73 14.30L488.73 14.30L488.73 14.30Q489.29 13.82 489.29 13.02L489.29 13.02L489.29 12.94L489.29 12.94Q489.29 12.17 488.72 11.76L488.72 11.76L488.72 11.76Q488.15 11.35 486.88 11.17L486.88 11.17L486.88 11.17Q486.14 11.07 485.54 10.87L485.54 10.87L485.54 10.87Q484.95 10.67 484.53 10.34L484.53 10.34L484.53 10.34Q484.11 10.01 483.88 9.55L483.88 9.55L483.88 9.55Q483.66 9.09 483.66 8.46L483.66 8.46L483.66 8.29L483.66 8.29Q483.66 7.71 483.90 7.24L483.90 7.24L483.90 7.24Q484.13 6.76 484.56 6.41L484.56 6.41L484.56 6.41Q484.99 6.06 485.58 5.87L485.58 5.87L485.58 5.87Q486.18 5.68 486.89 5.68L486.89 5.68L486.89 5.68Q487.72 5.68 488.37 5.92L488.37 5.92L488.37 5.92Q489.02 6.16 489.47 6.56L489.47 6.56L489.47 6.56Q489.92 6.96 490.15 7.50L490.15 7.50L490.15 7.50Q490.38 8.04 490.38 8.62L490.38 8.62L490.38 9.21L489.20 9.21Z"></path></g></svg>